<svg width="158" height="23" viewBox="0 0 158 23" fill="none" xmlns="http://www.w3.org/2000/svg">
<path d="M7.54688 18V4.125H0.679688V1.08984H18.2695V4.125H11.4023V18H7.54688ZM17.9766 18V5.44922L21.7148 5.47266V7.98047H21.7852C22.0508 7.10547 22.5312 6.42578 23.2266 5.94141C23.9219 5.44922 24.7773 5.20312 25.793 5.20312C26.0352 5.20312 26.2656 5.21484 26.4844 5.23828C26.7109 5.26172 26.9062 5.29688 27.0703 5.34375V8.36719C26.8594 8.32031 26.6211 8.28516 26.3555 8.26172C26.0898 8.23047 25.8164 8.21484 25.5352 8.21484C24.7617 8.21484 24.0859 8.35938 23.5078 8.64844C22.9375 8.92969 22.4961 9.35156 22.1836 9.91406C21.8711 10.4766 21.7148 11.1758 21.7148 12.0117V18H17.9766ZM33.4102 18.2109C32.3008 18.2109 31.332 18.0625 30.5039 17.7656C29.6758 17.4609 29.0312 17.0195 28.5703 16.4414C28.1172 15.8555 27.8906 15.1406 27.8906 14.2969V14.2734C27.8906 13.5469 28.0781 12.9141 28.4531 12.375C28.8359 11.8281 29.4297 11.4023 30.2344 11.0977C31.0469 10.7852 32.1016 10.6133 33.3984 10.582L40.5586 10.4297V12.457L33.9727 12.6211C33.1289 12.6367 32.5156 12.7734 32.1328 13.0312C31.7578 13.2891 31.5703 13.6406 31.5703 14.0859V14.1094C31.5703 14.6719 31.8359 15.0938 32.3672 15.375C32.8984 15.6484 33.5977 15.7852 34.4648 15.7852C35.3164 15.7852 36.0586 15.668 36.6914 15.4336C37.3242 15.1992 37.8164 14.8672 38.168 14.4375C38.5195 14.0078 38.6953 13.5078 38.6953 12.9375V10.1016C38.6953 9.35156 38.4023 8.77344 37.8164 8.36719C37.2383 7.95312 36.4141 7.74609 35.3438 7.74609C34.4062 7.74609 33.6562 7.89453 33.0938 8.19141C32.5391 8.48828 32.1875 8.89062 32.0391 9.39844L32.0156 9.50391H28.4883L28.5117 9.36328C28.6523 8.54297 29.0078 7.81641 29.5781 7.18359C30.1562 6.55078 30.9336 6.05469 31.9102 5.69531C32.8867 5.33594 34.0547 5.15625 35.4141 5.15625C36.875 5.15625 38.1289 5.35156 39.1758 5.74219C40.2227 6.125 41.0234 6.68359 41.5781 7.41797C42.1406 8.14453 42.4219 9.01953 42.4219 10.043V18H38.6953V15.9023H38.6133C38.3242 16.3789 37.9219 16.793 37.4062 17.1445C36.8984 17.4883 36.3047 17.7539 35.625 17.9414C34.9453 18.1211 34.207 18.2109 33.4102 18.2109ZM51.1758 18.293C49.8164 18.293 48.6328 18.0195 47.625 17.4727C46.6172 16.918 45.8359 16.1484 45.2812 15.1641C44.7344 14.1797 44.4609 13.0352 44.4609 11.7305V11.707C44.4609 10.4023 44.7344 9.25781 45.2812 8.27344C45.8359 7.28906 46.6172 6.52344 47.625 5.97656C48.6328 5.42969 49.8164 5.15625 51.1758 5.15625C52.0508 5.15625 52.8398 5.26562 53.543 5.48438C54.2539 5.70312 54.8711 6.01172 55.3945 6.41016C55.918 6.80078 56.3398 7.25391 56.6602 7.76953H56.7422V0.972656H60.4688V18H56.7422V15.6797H56.6602C56.3398 16.2031 55.918 16.6602 55.3945 17.0508C54.8789 17.4414 54.2656 17.7461 53.5547 17.9648C52.8516 18.1836 52.0586 18.293 51.1758 18.293ZM52.4648 15.5391C53.332 15.5391 54.0859 15.3828 54.7266 15.0703C55.3672 14.7578 55.8633 14.3164 56.2148 13.7461C56.5664 13.1758 56.7422 12.5039 56.7422 11.7305V11.7188C56.7422 10.9453 56.5664 10.2734 56.2148 9.70312C55.8633 9.13281 55.3672 8.69531 54.7266 8.39062C54.0859 8.07812 53.332 7.92188 52.4648 7.92188C51.5898 7.92188 50.8359 8.07422 50.2031 8.37891C49.5781 8.67578 49.0977 9.10938 48.7617 9.67969C48.4258 10.25 48.2578 10.9258 48.2578 11.707V11.7305C48.2578 12.5195 48.4258 13.1992 48.7617 13.7695C49.0977 14.3398 49.5781 14.7773 50.2031 15.082C50.8359 15.3867 51.5898 15.5391 52.4648 15.5391ZM63.1992 18V5.44922H66.9375V18H63.1992ZM65.0625 3.80859C64.4688 3.80859 63.9805 3.63281 63.5977 3.28125C63.2148 2.92969 63.0234 2.49609 63.0234 1.98047C63.0234 1.46484 63.2148 1.03125 63.5977 0.679688C63.9805 0.328125 64.4688 0.152344 65.0625 0.152344C65.6641 0.152344 66.1562 0.328125 66.5391 0.679688C66.9219 1.03125 67.1133 1.46484 67.1133 1.98047C67.1133 2.49609 66.9219 2.92969 66.5391 3.28125C66.1562 3.63281 65.6641 3.80859 65.0625 3.80859ZM69.5977 18V5.44922H73.3242V7.89844H73.3945C73.8477 7.04688 74.5195 6.37891 75.4102 5.89453C76.3086 5.40234 77.3867 5.15625 78.6445 5.15625C80.457 5.15625 81.8594 5.65234 82.8516 6.64453C83.8516 7.62891 84.3516 9.02344 84.3516 10.8281V18H80.625V11.5664C80.625 10.3945 80.3359 9.50391 79.7578 8.89453C79.1797 8.28516 78.332 7.98047 77.2148 7.98047C76.4258 7.98047 75.7383 8.13672 75.1523 8.44922C74.5742 8.76172 74.125 9.19922 73.8047 9.76172C73.4844 10.3242 73.3242 10.9922 73.3242 11.7656V18H69.5977ZM94.3477 22.4648C92.957 22.4648 91.7383 22.3086 90.6914 21.9961C89.6445 21.6914 88.7969 21.2578 88.1484 20.6953C87.5078 20.1406 87.082 19.4961 86.8711 18.7617L86.8477 18.6445H90.6562L90.7031 18.7148C90.9531 19.1055 91.3828 19.418 91.9922 19.6523C92.6094 19.8867 93.3984 20.0039 94.3594 20.0039C95.7812 20.0039 96.8438 19.7305 97.5469 19.1836C98.25 18.6367 98.6016 17.8672 98.6016 16.875V15.3867H98.5312C98.2109 15.8789 97.7891 16.3086 97.2656 16.6758C96.75 17.043 96.1367 17.332 95.4258 17.543C94.7227 17.7461 93.9414 17.8477 93.082 17.8477C91.7383 17.8477 90.5625 17.5859 89.5547 17.0625C88.5469 16.5312 87.7656 15.7969 87.2109 14.8594C86.6562 13.9141 86.3789 12.8203 86.3789 11.5781V11.5547C86.3789 10.2812 86.6562 9.16797 87.2109 8.21484C87.7734 7.25391 88.5586 6.50781 89.5664 5.97656C90.5742 5.4375 91.7539 5.16797 93.1055 5.16797C93.957 5.16797 94.7344 5.27734 95.4375 5.49609C96.1406 5.71484 96.75 6.02344 97.2656 6.42188C97.7891 6.8125 98.2109 7.26172 98.5312 7.76953H98.6016V5.44922H102.34V16.8047C102.34 17.9922 102.023 19.0078 101.391 19.8516C100.766 20.6953 99.8594 21.3398 98.6719 21.7852C97.4844 22.2383 96.043 22.4648 94.3477 22.4648ZM94.3828 15.3047C95.2266 15.3047 95.9648 15.1523 96.5977 14.8477C97.2305 14.543 97.7227 14.1133 98.0742 13.5586C98.4258 13.0039 98.6016 12.3477 98.6016 11.5898V11.5781C98.6016 10.8281 98.4258 10.1758 98.0742 9.62109C97.7227 9.05859 97.2305 8.625 96.5977 8.32031C95.9648 8.01562 95.2266 7.86328 94.3828 7.86328C93.5312 7.86328 92.7891 8.01562 92.1562 8.32031C91.5234 8.61719 91.0352 9.04297 90.6914 9.59766C90.3477 10.1445 90.1758 10.8008 90.1758 11.5664V11.5898C90.1758 12.3633 90.3477 13.0273 90.6914 13.582C91.0352 14.1367 91.5234 14.5625 92.1562 14.8594C92.7891 15.1562 93.5312 15.3047 94.3828 15.3047ZM109.969 18V4.125H103.102V1.08984H120.691V4.125H113.824V18H109.969ZM126.527 18.293C124.926 18.293 123.527 18.0273 122.332 17.4961C121.145 16.9648 120.219 16.207 119.555 15.2227C118.898 14.2383 118.57 13.0742 118.57 11.7305V11.707C118.57 10.3633 118.898 9.20312 119.555 8.22656C120.219 7.25 121.148 6.49609 122.344 5.96484C123.539 5.42578 124.934 5.15625 126.527 5.15625C128.129 5.15625 129.523 5.42188 130.711 5.95312C131.906 6.48438 132.832 7.24219 133.488 8.22656C134.152 9.20312 134.484 10.3633 134.484 11.707V11.7305C134.484 13.082 134.156 14.25 133.5 15.2344C132.844 16.2109 131.918 16.9648 130.723 17.4961C129.527 18.0273 128.129 18.293 126.527 18.293ZM126.527 15.5859C127.355 15.5859 128.082 15.4336 128.707 15.1289C129.332 14.8242 129.816 14.3867 130.16 13.8164C130.512 13.2461 130.688 12.5508 130.688 11.7305V11.707C130.688 10.8945 130.512 10.2031 130.16 9.63281C129.816 9.0625 129.332 8.625 128.707 8.32031C128.082 8.01562 127.355 7.86328 126.527 7.86328C125.707 7.86328 124.98 8.01562 124.348 8.32031C123.723 8.625 123.234 9.0625 122.883 9.63281C122.539 10.2031 122.367 10.8945 122.367 11.707V11.7305C122.367 12.5508 122.539 13.2461 122.883 13.8164C123.234 14.3867 123.723 14.8242 124.348 15.1289C124.973 15.4336 125.699 15.5859 126.527 15.5859ZM143.988 18.293C142.387 18.293 140.988 18.0273 139.793 17.4961C138.605 16.9648 137.68 16.207 137.016 15.2227C136.359 14.2383 136.031 13.0742 136.031 11.7305V11.707C136.031 10.3633 136.359 9.20312 137.016 8.22656C137.68 7.25 138.609 6.49609 139.805 5.96484C141 5.42578 142.395 5.15625 143.988 5.15625C145.59 5.15625 146.984 5.42188 148.172 5.95312C149.367 6.48438 150.293 7.24219 150.949 8.22656C151.613 9.20312 151.945 10.3633 151.945 11.707V11.7305C151.945 13.082 151.617 14.25 150.961 15.2344C150.305 16.2109 149.379 16.9648 148.184 17.4961C146.988 18.0273 145.59 18.293 143.988 18.293ZM143.988 15.5859C144.816 15.5859 145.543 15.4336 146.168 15.1289C146.793 14.8242 147.277 14.3867 147.621 13.8164C147.973 13.2461 148.148 12.5508 148.148 11.7305V11.707C148.148 10.8945 147.973 10.2031 147.621 9.63281C147.277 9.0625 146.793 8.625 146.168 8.32031C145.543 8.01562 144.816 7.86328 143.988 7.86328C143.168 7.86328 142.441 8.01562 141.809 8.32031C141.184 8.625 140.695 9.0625 140.344 9.63281C140 10.2031 139.828 10.8945 139.828 11.707V11.7305C139.828 12.5508 140 13.2461 140.344 13.8164C140.695 14.3867 141.184 14.8242 141.809 15.1289C142.434 15.4336 143.16 15.5859 143.988 15.5859ZM154.113 18V0.972656H157.84V18H154.113Z" fill="#FBF9F7"/>
</svg>
